<svg width="30" height="30" viewBox="0 0 30 30" fill="none" xmlns="http://www.w3.org/2000/svg">
<path d="M7.1875 5.75H22.8125C23.8568 5.75 24.8583 6.1649 25.5967 6.90332C26.3351 7.64174 26.75 8.64321 26.75 9.6875V20.3125C26.75 21.3568 26.3351 22.3583 25.5967 23.0967C24.8583 23.8351 23.8568 24.25 22.8125 24.25H7.1875C6.14321 24.25 5.14174 23.8351 4.40332 23.0967C3.6649 22.3583 3.25 21.3568 3.25 20.3125V9.6875C3.25 8.64321 3.6649 7.64174 4.40332 6.90332C5.14174 6.1649 6.14321 5.75 7.1875 5.75ZM7.1875 6.125C6.24267 6.125 5.33607 6.49987 4.66797 7.16797C3.99987 7.83607 3.625 8.74267 3.625 9.6875V20.3125C3.625 21.2573 3.99987 22.1639 4.66797 22.832C5.33607 23.5001 6.24267 23.875 7.1875 23.875H22.8125C23.7573 23.875 24.6639 23.5001 25.332 22.832C26.0001 22.1639 26.375 21.2573 26.375 20.3125V9.6875C26.375 8.74267 26.0001 7.83607 25.332 7.16797C24.6639 6.49987 23.7573 6.125 22.8125 6.125H7.1875ZM7.1875 9.5C7.23723 9.5 7.28515 9.51952 7.32031 9.55469C7.35548 9.58985 7.375 9.63777 7.375 9.6875V20.3125L7.36035 20.3838C7.35102 20.4064 7.33796 20.4277 7.32031 20.4453C7.28515 20.4805 7.23723 20.5 7.1875 20.5C7.13777 20.5 7.08985 20.4805 7.05469 20.4453C7.01953 20.4102 7 20.3622 7 20.3125V9.6875C7 9.63777 7.01952 9.58985 7.05469 9.55469C7.08985 9.51952 7.13777 9.5 7.1875 9.5ZM13.417 10.7266C13.4422 10.727 13.4672 10.7329 13.4902 10.7432C13.5132 10.7534 13.5346 10.7677 13.5518 10.7861L13.5605 10.7959L13.5703 10.8057L15.0645 12.2988L15.4756 12.71L15.9766 12.4141C16.4227 12.1507 16.9427 12 17.5 12C18.036 11.9997 18.5626 12.1431 19.0244 12.415L19.5244 12.71L21.4131 10.8213C21.4483 10.7895 21.4946 10.7727 21.542 10.7734C21.5906 10.7743 21.6375 10.7938 21.6719 10.8281C21.7062 10.8625 21.7257 10.9094 21.7266 10.958C21.7273 11.0054 21.7095 11.0508 21.6777 11.0859L20.2012 12.5645L19.79 12.9756L20.0859 13.4766C20.3493 13.9227 20.5 14.4427 20.5 15C20.5 15.5573 20.3493 16.0773 20.0859 16.5234L19.79 17.0244L20.2012 17.4355L21.6943 18.9297L21.7041 18.9395L21.7139 18.9482C21.7323 18.9654 21.7466 18.9868 21.7568 19.0098C21.7671 19.0327 21.773 19.0578 21.7734 19.083C21.7738 19.108 21.7691 19.133 21.7598 19.1562C21.7503 19.1795 21.7365 19.201 21.7188 19.2188C21.701 19.2365 21.6796 19.2503 21.6562 19.2598C21.633 19.2691 21.608 19.2738 21.583 19.2734C21.5578 19.273 21.5327 19.2671 21.5098 19.2568C21.4868 19.2466 21.4654 19.2323 21.4482 19.2139L21.4395 19.2041L21.4297 19.1943L19.9355 17.7012L19.5244 17.29L19.0234 17.5859C18.5773 17.8493 18.0573 18 17.5 18C16.9427 18 16.4227 17.8493 15.9766 17.5859L15.4756 17.29L15.0645 17.7012L13.5703 19.1943L13.5605 19.2041L13.5518 19.2139C13.5346 19.2323 13.5132 19.2466 13.4902 19.2568C13.4673 19.2671 13.4422 19.273 13.417 19.2734C13.392 19.2738 13.367 19.2691 13.3438 19.2598C13.3205 19.2503 13.299 19.2365 13.2812 19.2188C13.2635 19.201 13.2497 19.1795 13.2402 19.1562C13.2309 19.133 13.2262 19.108 13.2266 19.083C13.227 19.0578 13.2329 19.0328 13.2432 19.0098C13.2534 18.9868 13.2677 18.9654 13.2861 18.9482L13.2959 18.9395L13.3057 18.9297L14.7988 17.4355L15.21 17.0244L14.9141 16.5234C14.6507 16.0773 14.5 15.5573 14.5 15L14.5068 14.7988C14.5378 14.3329 14.6771 13.8796 14.915 13.4756L15.21 12.9756L14.7988 12.5645L13.3057 11.0703L13.2959 11.0605L13.2861 11.0518L13.2617 11.0234C13.2543 11.0131 13.2483 11.0019 13.2432 10.9902C13.2329 10.9672 13.227 10.9422 13.2266 10.917C13.2262 10.892 13.2309 10.867 13.2402 10.8438C13.2497 10.8205 13.2635 10.799 13.2812 10.7812C13.299 10.7635 13.3205 10.7497 13.3438 10.7402C13.367 10.7309 13.392 10.7262 13.417 10.7266ZM17.5 12.375C16.8038 12.375 16.1358 12.6513 15.6436 13.1436C15.1513 13.6358 14.875 14.3038 14.875 15C14.875 15.6962 15.1513 16.3642 15.6436 16.8564C16.0742 17.2871 16.6394 17.5526 17.2402 17.6123L17.5 17.625C18.1962 17.625 18.8642 17.3487 19.3564 16.8564C19.8487 16.3642 20.125 15.6962 20.125 15C20.125 14.3038 19.8487 13.6358 19.3564 13.1436C18.9258 12.7129 18.3606 12.4474 17.7598 12.3877L17.5 12.375Z" fill="black" stroke="black" stroke-width="1.5"/>
</svg>
